<?xml version="1.0" encoding="utf-8"?>
<!-- Generator: Adobe Illustrator 19.0.0, SVG Export Plug-In . SVG Version: 6.00 Build 0)  -->
<svg version="1.1" id="Layer_1" xmlns="http://www.w3.org/2000/svg" xmlns:xlink="http://www.w3.org/1999/xlink" x="0px" y="0px"
	 viewBox="-244.5 368.6 79.1 62.1" style="enable-background:new -244.5 368.6 79.1 62.1;" xml:space="preserve">
<path d="M-240.3,400.2c2.7-2.4,7.2-5.2,10.8-3.2c-4.2-3.3-10-0.7-13.1,3.1c-2.6,3.2-1.9,8.1-1.4,10.6c-0.1-1.8,0.2-3.6,0.6-5.4
	C-242.9,403.2-241.8,401.7-240.3,400.2z"/>
<path d="M-205.7,430.7C-205.7,430.7-205.7,430.7-205.7,430.7C-206.3,430.3-206,430.5-205.7,430.7z"/>
<path d="M-190.9,390c6.3-0.6,15.8,1.3,17.1,8.7c-0.2-8.2-9.1-12.3-16.4-11.7c-7.2,0.6-15.4,6.1-13.9,14.2
	C-204.1,394.1-197.2,390.6-190.9,390z"/>
<path d="M-231,415.9C-230.8,416-230.9,415.9-231,415.9C-231.1,415.8-231.2,415.8-231,415.9z"/>
<path d="M-218.8,398.8c-8.6,2.7-8.7,8.6-8.7,10.4c0.8-2,3.6-8.1,10-9.1c5.8-1,12.4-0.1,14.9,5.1
	C-204.5,398.4-212.9,396.8-218.8,398.8z"/>
<path d="M-238.4,419.1c-2.2-1.8-4.1-4.2-5.2-6.8c1,4.3,4.7,8.4,8.8,9.8c4.7,1.6,9.7,1.2,13.8-1.7
	C-226.8,423.2-233.3,423.3-238.4,419.1z"/>
<path d="M-219.8,419.2c0,0,2.1,3.6,10,4.3c8.7,0.8,12.6-6.8,12.6-6.8C-207.1,427.6-216.9,421.4-219.8,419.2z"/>
<path d="M-166.4,394.9c-1.2-3.3-3.9-6.3-6.7-8.2c1.6-8.3-5.9-16.2-14.7-17.8c-8.8-1.6-17.3,3.9-19,12.2c0,0.2-0.1,0.4-0.1,0.6
	c-3.8-2.2-9-2.3-13.1-0.7c-6,2.3-11.2,9-7.9,15.5c-2.1-6.5,3.2-11.3,8.9-13.1c5.2-1.7,13.5-2,16.5,3.7c0,0,0,0,0,0
	c-0.8-2.4-2.4-4.1-4.3-5.3c2.3-7.4,9.6-10.9,17.9-9.4c8,1.4,15.5,6.9,15.6,14.1c-1.1-0.7-1.3-1-2.5-1.5c-2.9-1.2-4.1-1.1-4.5-1.1
	c4.2,1.9,8.7,4.8,11.2,8.6c2,3,2.7,6.6,2.4,10.1c-0.4,3.9-1.8,8.1-4,11.4c-2.3,3.4-6,5.8-9.9,6.9c-5.7,1.7-12,1.1-17.4-1.5
	c0.4,0.2,0.7,0.5,1.1,0.7c7.8,4.3,18,3.4,24.5-2.8C-166.4,411.8-163.7,402.4-166.4,394.9z"/>
</svg>
