<?xml version="1.0" encoding="utf-8"?>
<!-- Generator: Adobe Illustrator 19.0.0, SVG Export Plug-In . SVG Version: 6.00 Build 0)  -->
<svg version="1.1" id="Layer_1" xmlns="http://www.w3.org/2000/svg" xmlns:xlink="http://www.w3.org/1999/xlink" x="0px" y="0px"
	 viewBox="-236.4 352 65.4 90" style="enable-background:new -236.4 352 65.4 90;" xml:space="preserve">
<path d="M-196.7,352c0,0-5.8,3.9-4.9,11.3c0.8,7,3.8,10.5,3.8,10.5s4.7-3.2,2.2-11.7C-196.7,358.4-197.6,358-196.7,352z"/>
<path d="M-189.5,365.3c0,0,0.4,2.3-1.1,5.9c-1.6,3.6,2.2,6.8,2.2,6.8S-182.7,371.7-189.5,365.3z"/>
<path d="M-171.1,404.6c-4.6,14.6-9.7,16.8-9.7,16.8c14.3-27-11.5-44.4-11.5-44.4c12.1,17,3,31.5,3,31.5s5.6-12.1-8.8-24.7
	c-16.1-14.9-8.1-27.1-8.1-27.1c-14.2,4.8-14.6,17.6-11.7,22.7c8.4,13.9,5.1,20.7,5.1,20.7c-0.2-3.1-2.5-5.4-9.7-10.6
	c-7.2-5.2-2.7-14.7-2.7-14.7c-4.7,2.9-8.8,12.4-3.2,19c10.3,12.9,1.8,20.2,1.8,20.2c3.4-14.3-9.8-17.4-9.8-17.4
	c10.2,8.3,0.8,14.4,2.4,24.1c3,22.8,29.2,21.3,29.2,21.3c0.7,0,1.5-0.1,2.2-0.1c-9.9,0-12.6-6.2-10.2-8.5c0,0,4-3.5-0.8-9.5
	c-2.6-3.1-0.7-7.6,1.5-8.9c0,0-2.1,4.5,1.3,6.9c3.4,2.4,4.5,3.5,4.5,5c0,0,1.5-3.2-2.4-9.7c-1.4-2.4-1.2-8.4,5.5-10.7
	c0,0-3.8,5.7,3.8,12.7c6.8,5.9,4.1,11.6,4.1,11.6s4.3-6.8-1.4-14.8c0,0,12.1,8.2,5.4,20.9c0,0-1.6,3.6-7.5,4.7
	C-168.7,437.4-171.1,404.6-171.1,404.6z"/>
</svg>
