<?xml version="1.0" encoding="utf-8"?>
<!-- Generator: Adobe Illustrator 19.0.0, SVG Export Plug-In . SVG Version: 6.00 Build 0)  -->
<svg version="1.1" id="Layer_1" xmlns="http://www.w3.org/2000/svg" xmlns:xlink="http://www.w3.org/1999/xlink" x="0px" y="0px"
	 viewBox="-258.3 372.4 57.2 52.1" style="enable-background:new -258.3 372.4 57.2 52.1;" xml:space="preserve">
<g>
	<path d="M-241.9,408.1c-9.7-9.7-10.9-24.7-3.6-35.7c-1.6,1-3.1,2.2-4.4,3.6c-11.1,11.1-11.1,29,0,40.1s29,11.1,40.1,0
		c1.4-1.4,2.6-2.9,3.6-4.4C-217.2,419-232.2,417.8-241.9,408.1z"/>
	<path d="M-232.3,376.8l2.4,4.8l5.3,0.8l-3.8,3.7l0.9,5.3l-4.7-2.5l-4.7,2.5l0.9-5.3l-3.8-3.7l5.3-0.8L-232.3,376.8z"/>
	<path d="M-215.1,400.7l1,2.1l2.3,0.3l-1.7,1.6l0.4,2.3l-2.1-1.1l-2.1,1.1l0.4-2.3l-1.7-1.6l2.3-0.3L-215.1,400.7z"/>
	<path d="M-239.5,394.8l1.2,2.4l2.6,0.4l-1.9,1.8l0.4,2.6l-2.3-1.2l-2.3,1.2l0.4-2.6l-1.9-1.8l2.6-0.4L-239.5,394.8z"/>
	<path d="M-205.6,381.8l1.4,2.9l3.2,0.5l-2.3,2.2l0.5,3.1l-2.8-1.5l-2.8,1.5l0.5-3.1l-2.3-2.2l3.1-0.5L-205.6,381.8z"/>
</g>
</svg>
