<?xml version="1.0" encoding="utf-8"?>
<!-- Generator: Adobe Illustrator 19.0.0, SVG Export Plug-In . SVG Version: 6.00 Build 0)  -->
<svg version="1.1" id="Layer_1" xmlns="http://www.w3.org/2000/svg" xmlns:xlink="http://www.w3.org/1999/xlink" x="0px" y="0px"
	 viewBox="-249 349.7 88 68.5" style="enable-background:new -249 349.7 88 68.5;" xml:space="preserve">
<path d="M-188.1,403.5c-1.8,0.7-3.8-0.1-4.5-1.8c-0.7-1.8,0.1-3.8,1.8-4.5c0.8-0.4,1.6-0.8,2.4-1.3c0.8-0.5,1.5-1.1,2.2-1.8
	c0.7-0.7,1.3-1.4,1.8-2.2c0.5-0.8,1-1.6,1.3-2.4c0.4-0.9,0.7-1.8,0.9-2.8c0.2-0.9,0.3-1.9,0.3-2.9s-0.1-2-0.3-2.9
	c-0.2-1-0.5-1.9-0.9-2.8c-0.4-0.8-0.8-1.6-1.3-2.4c-0.5-0.8-1.1-1.5-1.8-2.2c-1.3-1.3-2.9-2.4-4.6-3.1c-1.8-0.7-2.6-2.8-1.8-4.5
	c0.7-1.8,2.8-2.6,4.5-1.8c2.6,1.1,4.9,2.7,6.8,4.6c1,1,1.8,2,2.6,3.2c0.7,1.1,1.4,2.3,2,3.6c0.5,1.3,1,2.7,1.3,4.1
	c0.3,1.4,0.4,2.8,0.4,4.3c0,1.4-0.1,2.8-0.4,4.3c-0.3,1.4-0.7,2.8-1.3,4.1c-0.6,1.3-1.2,2.5-2,3.6c-0.8,1.2-1.7,2.2-2.6,3.2
	c-1,1-2,1.8-3.2,2.6C-185.6,402.3-186.8,403-188.1,403.5z"/>
<path d="M-181.9,415.2c-1.8,0.7-3.8-0.1-4.5-1.8c-0.7-1.8,0.1-3.8,1.8-4.5c1.6-0.7,3.1-1.5,4.6-2.5c1.4-1,2.8-2.1,4.1-3.3
	s2.4-2.6,3.3-4c1-1.5,1.8-3,2.5-4.6c0.7-1.7,1.2-3.4,1.6-5.2c0.3-1.7,0.5-3.5,0.5-5.4s-0.2-3.7-0.5-5.4c-0.4-1.8-0.9-3.5-1.6-5.2
	c-0.7-1.6-1.5-3.1-2.5-4.6c-1-1.4-2.1-2.8-3.3-4s-2.6-2.4-4.1-3.3c-1.5-1-3-1.8-4.6-2.5c-1.8-0.7-2.6-2.8-1.8-4.5
	c0.7-1.8,2.8-2.6,4.5-1.8c2.1,0.9,4,1.9,5.8,3.1c1.8,1.2,3.5,2.6,5.1,4.2s2.9,3.2,4.2,5.1c1.2,1.8,2.2,3.7,3.1,5.8
	c0.9,2.1,1.6,4.2,2,6.5c0.5,2.2,0.7,4.5,0.7,6.8c0,2.3-0.2,4.5-0.7,6.8c-0.5,2.3-1.1,4.4-2,6.5c-0.9,2.1-1.9,4-3.1,5.8
	c-1.2,1.8-2.6,3.5-4.2,5.1c-1.5,1.5-3.2,2.9-5.1,4.2C-177.9,413.3-179.8,414.3-181.9,415.2z"/>
<path d="M-208.9,351.2c-6.9,5.2-13.8,10.4-20.7,15.6H-243c-3.3,0-6,2.7-6,6v22.5c0,3.3,2.7,6,6,6h13.4c6.9,5.2,13.8,10.4,20.7,15.6
	c3.1,2.4,6.8,2,6.8-2.1c0-20.5,0-40.9,0-61.4C-202.1,349.2-205.7,348.8-208.9,351.2z"/>
</svg>
