<?xml version="1.0" encoding="utf-8"?>
<!-- Generator: Adobe Illustrator 19.0.0, SVG Export Plug-In . SVG Version: 6.00 Build 0)  -->
<svg version="1.1" id="Layer_1" xmlns="http://www.w3.org/2000/svg" xmlns:xlink="http://www.w3.org/1999/xlink" x="0px" y="0px"
	 viewBox="-250 365.1 90 63.7" style="enable-background:new -250 365.1 90 63.7;" xml:space="preserve">
<polygon points="-250,428.9 -250,428.9 -250,428.9 "/>
<path d="M-160,396.8l-0.2-1.4l-0.3-1.3l-0.3-0.6l-0.5-0.5l-57.5-28l-29.4,12l-1.7,51.7h7.1l-0.9-51.3l0.5-0.2l13.7,19l63.2,11.8
	l0.6,0l0.5-0.1l0.5-0.2l1-0.9l0.9-1l0.8-1.1l0.8-1.5l0.5-1.2l0.3-1.1l0.2-1.4l0.1-1.4L-160,396.8z M-228.5,380.7l-0.6,2.2l-0.4,2.2
	l-0.3,2.3l-0.1,2.3v2.3l-11.2-15.6l0,0l0,0l0,0l18.8-7.6l-1.4,1.8l-1.2,1.9l-1.1,2l-1,2l-0.8,2.1L-228.5,380.7z M-213,374.7
	l-1.2,1.7l-1.1,1.8l-1,1.9l-0.8,1.9l-0.7,2l-0.5,2l-0.4,2l-0.2,2.1l-0.1,2.1l0.1,2.1l0.2,2.1l-8.5-1.5l-0.2-2.1l-0.1-2.1l0.1-2.1
	l0.2-2.1l0.3-2.1l0.4-2.1l0.6-2l0.7-2l0.9-1.9l1-1.9l1.1-1.8l1.2-1.7l1.3-1.6l1.4-1.5l7.8,3.9l-1.4,1.5L-213,374.7z M-196,380.4
	l-1.1,1.3l-1,1.4l-0.9,1.5l-0.8,1.5l-0.7,1.6l-0.5,1.6l-0.4,1.7l-0.3,1.7l-0.2,1.7l0,1.7l0.1,1.7l0.2,1.7l-8.5-1.5l-0.2-1.9
	l-0.1-1.9l0-1.9l0.2-2.1l0.3-1.7l0.5-1.9l0.6-1.8l0.7-1.8l0.9-1.7l1-1.6l1.1-1.6l1.2-1.5l1.3-1.4l7.8,3.9L-196,380.4z M-180.2,387.7
	l-1,1.1l-0.9,1.2l-0.8,1.3l-0.7,1.3l-0.6,1.4l-0.4,1.4l-0.3,1.5l-0.1,1.5l0,1.5l0.2,1.5l0.3,1.5l-8.5-1.5l-0.3-1.5l-0.2-1.5l0-1.6
	l0.1-1.6l0.2-1.5l0.3-1.5l0.5-1.5l0.6-1.4l0.7-1.4l0.8-1.3l1-1.2l1.1-1.2l1.1-1.1l7.8,3.9L-180.2,387.7z M-165.2,395l-0.8,1.2
	l-0.7,1.3l-0.5,1.4l-0.4,1.4l-0.2,1.4l-0.1,1.5l0.1,1.5l0.3,1.4l-8.5-1.5l-0.3-1.3l-0.2-1.3l-0.1-1.3l0.1-1.3l0.2-1.3l0.3-1.3
	l0.4-1.2l0.6-1.2l0.7-1.1l0.8-1l0.9-1l1-0.9v0l7.2,3.6L-165.2,395z"/>
</svg>
