<?xml version="1.0" encoding="utf-8"?>
<!-- Generator: Adobe Illustrator 19.0.0, SVG Export Plug-In . SVG Version: 6.00 Build 0)  -->
<svg version="1.1" id="Layer_1" xmlns="http://www.w3.org/2000/svg" xmlns:xlink="http://www.w3.org/1999/xlink" x="0px" y="0px"
	 viewBox="-254.4 311.5 109.8 120.4" style="enable-background:new -254.4 311.5 109.8 120.4;" xml:space="preserve">
<path d="M-155.5,384.1c0-4.9-0.9-9.5-2.5-13.7c-6-16.5-22.9-28.7-43.1-30c8,4.9,10.2,15,11.7,27.9c-1.9-14.9-5.9-24.1-12.8-27.9
	c-0.1,0-1.2-0.2-1.3-0.2v-2.6c0-0.8-0.6-1.4-1.4-1.4c-0.8,0-1.4,0.6-1.4,1.4v2.6v0c0,0,0,0,0,0l-0.3,0.1v0c-0.3,0.1-0.8,0.2-0.9,0.2
	c-7,3.8-10.9,13-12.9,27.9c1.5-12.8,3.7-23,11.7-27.9c-20.2,1.4-37.1,13.5-43.1,30c-1.6,4.2-2.5,8.8-2.5,13.7l0,0
	c0,0.2,0.1,0.3,0.3,0.3c0.1,0,0.3-0.1,0.3-0.3l0,0c0-0.2,0-0.4,0-0.6c3.4-2.9,9.2-4.9,15.8-4.9c7.1,0,13.3,2.2,16.5,5.5
	c0,0.2,0,0.5,0,0.7l0,0c0,0.1,0.1,0.3,0.3,0.3s0.3-0.1,0.3-0.3l0,0c0-0.4,0-0.7,0-1c0.1-0.1,0.3-0.3,0.5-0.4l-0.1,0
	c0.2-0.2,0.4-0.3,0.6-0.5c0.1-0.1,0.2-0.1,0.3-0.2c3.4-2.5,8.8-4.2,14.9-4.2c0.3,0,0.7,0,1,0c0,0-0.7,0.1-1.7,0.6l-0.6,0.3
	c-0.2,0.1-0.4,0.2-0.6,0.4v28h-0.5v0.1c-0.6,0.3-0.9,0.8-0.9,1.5c0,0.1,0,0.1,0,0.2v12.2v0.5c0,5.3,4.3,9.6,9.7,9.6
	c5.3,0,9.6-4.3,9.6-9.6l0-4.9c0,0,0,0,0,0c0-1.8-1.4-3.2-3.2-3.2c-1.8,0-3.2,1.4-3.2,3.2h0v4.9c0,1.8-1.5,3.3-3.3,3.3
	c-1.8,0-3.3-1.5-3.3-3.3v-0.5v-12.5h0c0-0.6-0.4-1.1-0.9-1.3v-29.2c5.8,0.4,10.7,2.3,13.7,4.9c0,0.3,0,0.7,0,1l0,0
	c0,0.2,0.1,0.3,0.3,0.3c0.2,0,0.3-0.1,0.3-0.3l0,0c0-0.3,0-0.5,0-0.8c3.3-3.1,9.7-5.3,16.5-5.3c6.7,0,12.6,2,15.9,5
	c0,0.2,0,0.4,0,0.6l0,0c0,0.2,0.1,0.3,0.3,0.3C-155.6,384.4-155.5,384.2-155.5,384.1L-155.5,384.1z"/>
<path d="M-208.6,327.5c-0.1,0-0.3,0-0.3,0c-0.6-0.1-0.7-0.7-0.6-1.3l3.1-8.6c0.1-0.6,0.7-0.7,1.3-0.6c0.6,0.1,0.7,0.7,0.6,1.3
	l-3.1,8.6C-207.7,327.2-208.2,327.5-208.6,327.5z"/>
<path d="M-200.7,333.3c-0.1,0-0.3,0-0.3,0c-0.6-0.1-0.7-0.7-0.6-1.3l6.7-18.9c0.1-0.6,0.7-0.7,1.3-0.6c0.6,0.1,0.7,0.7,0.6,1.3
	l-6.7,18.9C-199.8,333-200.3,333.3-200.7,333.3z"/>
<path d="M-189.3,328.9c-0.1,0-0.3,0-0.3,0c-0.6-0.1-0.7-0.7-0.6-1.3l4.8-13.6c0.1-0.6,0.7-0.7,1.3-0.6c0.6,0.1,0.7,0.7,0.6,1.3
	l-4.8,13.6C-188.5,328.8-188.9,328.9-189.3,328.9z"/>
<path d="M-181.6,335c-0.1,0-0.3,0-0.3,0c-0.6-0.1-0.7-0.7-0.6-1.3l7.6-21.6c0.1-0.6,0.7-0.7,1.3-0.6c0.6,0.1,0.7,0.7,0.6,1.3
	l-7.6,21.4C-180.7,334.7-181.2,335-181.6,335z"/>
<path d="M-170.8,332.6c-0.1,0-0.3,0-0.3,0c-0.6-0.1-0.7-0.7-0.6-1.3l4.7-13.1c0.1-0.6,0.7-0.7,1.3-0.6c0.6,0.1,0.7,0.7,0.6,1.3
	l-4.7,13.1C-170.1,332.3-170.4,332.6-170.8,332.6z"/>
<path d="M-161.8,335c-0.1,0-0.3,0-0.3,0c-0.6-0.1-0.7-0.7-0.6-1.3l7-20c0.1-0.6,0.7-0.7,1.3-0.6s0.7,0.7,0.6,1.3l-7.1,19.8
	C-161.1,334.7-161.5,335-161.8,335z"/>
<path d="M-149,326.6c-0.1,0-0.3,0-0.3,0c-0.6-0.1-0.7-0.7-0.6-1.3l3.4-9.6c0.1-0.6,0.7-0.7,1.3-0.6c0.6,0.1,0.7,0.7,0.6,1.3
	l-3.4,9.6C-148.2,326.3-148.7,326.6-149,326.6z"/>
</svg>
