<?xml version="1.0" encoding="utf-8"?>
<!-- Generator: Adobe Illustrator 19.0.0, SVG Export Plug-In . SVG Version: 6.00 Build 0)  -->
<svg version="1.1" id="Layer_1" xmlns="http://www.w3.org/2000/svg" xmlns:xlink="http://www.w3.org/1999/xlink" x="0px" y="0px"
	 viewBox="-255 347 100 100" style="enable-background:new -255 347 100 100;" xml:space="preserve">
<style type="text/css">
	.st0{fill:none;stroke:#000000;stroke-width:20;stroke-linecap:round;stroke-linejoin:round;stroke-miterlimit:10;}
</style>
<g>
	<path d="M-204.9,371.5c-12.5,0-24.3-1-33.2-2.7c-10.4-2.1-15.3-4.8-15.3-8.7c0-3.8,4.9-6.6,15.3-8.7c8.9-1.8,20.7-2.7,33.2-2.7
		c12.5,0,24.3,1,33.2,2.7c10.4,2.1,15.3,4.8,15.3,8.7s-4.9,6.6-15.3,8.7C-180.6,370.5-192.4,371.5-204.9,371.5z M-249,360.1
		c0.3,0.4,2.2,2.6,12.8,4.6c8.5,1.6,19.6,2.5,31.3,2.5c11.7,0,22.8-0.9,31.3-2.5c10.6-2,12.6-4.2,12.8-4.6
		c-0.3-0.4-2.2-2.6-12.8-4.6c-8.5-1.6-19.6-2.5-31.3-2.5c-11.7,0-22.8,0.9-31.3,2.5C-246.8,357.5-248.7,359.7-249,360.1z"/>
</g>
<g>
	<path d="M-204.9,381.3c-16.3,0-31.3-1.7-40-4.5c-1.1-0.4-1.8-1.6-1.4-2.7c0.4-1.1,1.6-1.8,2.7-1.4c8.2,2.6,23,4.3,38.7,4.3
		c16.3,0,31.4-1.7,39.4-4.5c1.1-0.4,2.4,0.2,2.8,1.3c0.4,1.1-0.2,2.4-1.3,2.8C-172.6,379.5-187.9,381.3-204.9,381.3z"/>
</g>
<g>
	<path d="M-204.9,390.6c-14.3,0-27.6-1.3-36.6-3.5c-1.2-0.3-1.9-1.5-1.6-2.6c0.3-1.2,1.5-1.9,2.6-1.6c8.7,2.1,21.6,3.4,35.6,3.4
		c10.5,0,20.7-0.7,28.8-2c1.2-0.2,2.3,0.6,2.5,1.8c0.2,1.2-0.6,2.3-1.8,2.5C-183.8,389.9-194,390.6-204.9,390.6z"/>
</g>
<g>
	<path d="M-204.9,400c-15.4,0-29.9-1.5-38.7-4.1c-1.2-0.3-1.8-1.5-1.5-2.7c0.3-1.2,1.5-1.8,2.7-1.5c8.5,2.4,22.5,3.9,37.5,3.9
		c6.3,0,12.4-0.2,18.1-0.7c1.2-0.1,2.2,0.8,2.4,2c0.1,1.2-0.8,2.2-2,2.4C-192.3,399.7-198.5,400-204.9,400z"/>
</g>
<g>
	<path d="M-204.9,409.3c-14.3,0-27.6-1.3-36.6-3.5c-1.2-0.3-1.9-1.5-1.6-2.6c0.3-1.2,1.5-1.9,2.6-1.6c8.7,2.1,21.6,3.4,35.6,3.4
		c2.1,0,4.1,0,6.2,0c0,0,0,0,0.1,0c1.2,0,2.1,0.9,2.2,2c0,1.2-0.9,2.2-2.1,2.2C-200.7,409.3-202.8,409.3-204.9,409.3z"/>
</g>
<g>
	<path d="M-204.9,418.6c-2.7,0-5.4,0-8.1-0.1c-8.8-0.3-16.9-1.1-23.5-2.3c-1.2-0.2-2-1.3-1.7-2.5c0.2-1.2,1.3-2,2.5-1.7
		c6.4,1.2,14.3,1.9,22.9,2.2c2.6,0.1,5.3,0.1,7.9,0.1c1.2,0,2.2,1,2.2,2.2C-202.7,417.7-203.7,418.6-204.9,418.6z"/>
</g>
<g>
	<path d="M-204.9,428c-2.8,0-5.6,0-8.4-0.1c-4.9-0.2-9.7-0.5-14.1-1c-1.2-0.1-2.1-1.2-1.9-2.4c0.1-1.2,1.2-2.1,2.4-1.9
		c4.3,0.5,8.9,0.8,13.7,1c2.7,0.1,5.4,0.1,8.2,0.1c1.2,0,2.2,1,2.2,2.2C-202.7,427-203.7,428-204.9,428z"/>
</g>
<g>
	<path d="M-204.9,437.3c-3.4,0-6.8-0.1-10-0.2c-1.2-0.1-2.1-1.1-2.1-2.3c0.1-1.2,1.1-2.1,2.3-2.1c3.2,0.1,6.5,0.2,9.8,0.2
		c1.4,0,1.8,0,2.8,0c0.3,0,0.6,0,1,0c1.2,0,2.2,0.9,2.2,2.1c0,1.2-0.9,2.2-2.1,2.2c-0.4,0-0.7,0-1,0
		C-203,437.3-203.4,437.3-204.9,437.3z"/>
</g>
<g>
	<path d="M-204.1,445.6c-0.4,0-0.9,0-1.4,0c-1.2-0.1-2.1-1.1-2.1-2.3c0.1-1.2,1.1-2.1,2.3-2.1c1.1,0.1,2.6,0,2.6,0
		c1.2,0,2.2,0.9,2.3,2.1c0,1.2-0.9,2.2-2.1,2.3C-202.5,445.6-203.2,445.6-204.1,445.6z"/>
</g>
<ellipse class="st0" cx="-1303.3" cy="468.2" rx="213.1" ry="42.5"/>
<path class="st0" d="M-1484.4,535.6c37.6,12.1,104.7,20.1,181.2,20.1c78.9,0,147.7-8.6,184.6-21.3"/>
<path class="st0" d="M-1169.2,589.2c-36.6,5.9-83.3,9.5-134.1,9.5c-67.1,0-127-6.2-166-15.9"/>
<path class="st0" d="M-1478.8,623.3c38.4,11.1,102.7,18.4,175.5,18.4c29.8,0,58.2-1.2,84-3.4"/>
<path class="st0" d="M-1274.7,684.3c-9.4,0.2-18.9,0.4-28.6,0.4c-67.1,0-127-6.2-166-15.9"/>
<path class="st0" d="M-1303.3,727.7c-12.5,0-24.8-0.2-36.8-0.6c-40.7-1.4-77.5-5.1-106.8-10.5"/>
<path class="st0" d="M-1303.3,770.7c-13,0-25.7-0.2-38.1-0.7c-22.8-0.8-44.3-2.4-64-4.5"/>
<path class="st0" d="M-1349,812.7c14.7,0.6,30.1,1,45.8,1c8.3,0,9.5-0.1,17.6-0.3"/>
<path class="st0" d="M-1305.3,851.7c5.5,0.3,12.8,0,12.8,0"/>
</svg>
