<?xml version="1.0" encoding="utf-8"?>
<!-- Generator: Adobe Illustrator 19.0.0, SVG Export Plug-In . SVG Version: 6.00 Build 0)  -->
<svg version="1.1" id="Layer_1" xmlns="http://www.w3.org/2000/svg" xmlns:xlink="http://www.w3.org/1999/xlink" x="0px" y="0px"
	 viewBox="-362.7 661.4 132.2 132.3" style="enable-background:new -362.7 661.4 132.2 132.3;" xml:space="preserve">
<style type="text/css">
	.st0{opacity:0;}
</style>
<rect x="-362.7" y="661.4" class="st0" width="132.2" height="132.2"/>
<path d="M-259.7,786.1h12.5v1.1h-12.5V786.1z M-256.4,789.3h6v-1.1h-6V789.3z M-235.1,772.5c0,4.8-1.9,9.4-5.3,12.8l-0.4,0.4
	l-2.6-2.6l0.4-0.4c2.7-2.7,4.2-6.3,4.2-10.1c0-3.5-1.3-6.8-3.5-9.4l-6.8,10.6c-0.2,0.7-0.5,1.3-1,1.8c-1.7,1.6-4.4,1.6-6,0
	c-1.6-1.6-1.6-4.4,0-6c0.5-0.5,1.1-0.9,1.8-1.1l10.6-6.8c-2.6-2.2-5.9-3.4-9.4-3.4c-7.9,0-14.3,6.4-14.3,14.3
	c0,3.8,1.5,7.4,4.2,10.1l0.4,0.4l-2.6,2.6l-0.4-0.4c-3.4-3.4-5.3-8-5.3-12.8c0-10,8.1-18,18-18c4.6,0,9,1.7,12.4,4.9l0,0l0.3,0.3
	l0.7-0.4l-0.4,0.7l0.3,0.3l0,0C-236.8,763.5-235.1,767.8-235.1,772.5z M-250.7,770.5c-0.1-0.1-0.2-0.2-0.3-0.3
	c-0.8-0.8-2-1.1-3.1-0.8c-0.5,0.2-1,0.4-1.4,0.8c-1.3,1.3-1.3,3.3,0,4.5c1.3,1.3,3.3,1.3,4.5,0c0.4-0.4,0.7-0.9,0.8-1.4
	C-249.8,772.3-250.1,771.3-250.7,770.5z M-242.8,761l0.9-0.5l0.4-0.4c-3.2-3-7.2-4.6-11.6-4.6c-9.4,0-16.9,7.6-16.9,16.9
	c0,4.4,1.6,8.4,4.6,11.6l1.1-1.1c-2.7-2.9-4.1-6.6-4.1-10.5c0-8.5,6.9-15.4,15.4-15.4C-249.3,757-245.6,758.4-242.8,761z
	 M-231.9,772.5c0,11.7-9.5,21.2-21.2,21.2c-11.7,0-21.2-9.5-21.2-21.2s9.5-21.2,21.2-21.2C-241.4,751.2-231.9,760.7-231.9,772.5z
	 M-233,772.5c0-11.1-9-20.2-20.2-20.2c-11.1,0-20.2,9-20.2,20.2s9,20.2,20.2,20.2C-242,792.6-233,783.6-233,772.5z M-259.7,785h12.5
	v-1.1h-12.5V785z"/>
<path d="M-295.5,769.8c-4.2,1.5-10.4,1.5-16.8,1.5h-1.2h-7.7c-6.6,0-12.6,0-16.8-1.5c-4.2-1.5-6.1-4.5-6.1-9.5v-49.7
	c0-10.4,6.6-19.3,15.7-22.8v-6.2c-0.1-4.5,3.6-8.2,8-8.2h7.2c4.5,0,8.1,3.7,8.1,8.2v6.2c9.2,3.5,15.7,12.4,15.7,22.8v49.7
	C-289.6,765.4-291.5,768.4-295.5,769.8z M-311,679.7h-11.7c-0.8,0-1.5,0.7-1.5,1.5s0.7,1.5,1.5,1.5h11.7c0.8,0,1.5-0.7,1.5-1.5
	C-309.5,680.3-310.2,679.7-311,679.7z M-319.7,707.1c0,0,1.1,9.3-3.9,15.1c-3.8,4.4-6.1,9.9-4.4,15.4c0,0.1,0.1,0.2,0.1,0.2
	c0,0.1,0,0.1,0.1,0.2l0,0c1.5,4.3,5.7,7.5,10.6,7.5c3.8,0,7-1.9,9.2-4.6c0,0,2.9-3.2,2.9-9.1C-305.3,725.9-308.1,717.5-319.7,707.1z
	 M-303.6,750.4c-4.4,2.5-8.8,1.2-13.2,0c-4.4-1.3-8.8-2.5-13.2,0c0,0.4,0,0.8,0,1.2s0,0.8,0,1.2c4.4-2.5,8.8-1.2,13.2,0
	c2.5,0.7,5.1,1.4,7.6,1.4c1.9,0,3.7-0.4,5.6-1.4C-303.6,752.1-303.6,751.2-303.6,750.4z M-311.5,738.1
	C-311.5,738.1-311.5,738.2-311.5,738.1C-311.5,738.2-311.5,738.2-311.5,738.1c-0.8,2.3-2.9,3.7-5.2,3.7c-1.8,0-3.5-1-4.4-2.3l0,0
	c0,0-5.6-6.4,5.7-16.4c0,0-0.5,4.5,1.9,7.4c1.8,2.1,3,4.9,2.1,7.5C-311.5,738-311.5,738.1-311.5,738.1z M-321.3,774.6h1.2h7.7
	c0.4,0,0.8,0,1.2,0c6.6,0,12.3-0.1,16.8-1.7c2-0.7,3.7-1.8,5-3.2c-0.4,12.6-11.2,10.8-24.3,10.8h-6.2c-13.1,0-24,1.8-24.3-10.8
	c1.3,1.4,3,2.4,5,3.2C-334.5,774.6-328.4,774.6-321.3,774.6z"/>
</svg>
