<?xml version="1.0" encoding="utf-8"?>
<!-- Generator: Adobe Illustrator 19.2.1, SVG Export Plug-In . SVG Version: 6.00 Build 0)  -->
<svg version="1.1" id="Layer_1" xmlns="http://www.w3.org/2000/svg" xmlns:xlink="http://www.w3.org/1999/xlink" x="0px" y="0px"
	 viewBox="0 0 46.4 15.5" style="enable-background:new 0 0 46.4 15.5;" xml:space="preserve">
<style type="text/css">
	.st0{fill:#0A0B0C;}
</style>
<g>
	<path class="st0" d="M0,1c7.4-1.7,13.3-1.1,20,0.4c1,0.2,2,0.5,3.1,0.5c1.8,0.1,3.9-0.4,5.6-0.8c7-1.8,12.4-0.8,17.7,0.3L46,4.5
		c-0.8,0-1.1,0.4-1.3,1.1c-1.2,3.9-0.2,10.6-9.2,9.8c-6-0.5-7.7-2.2-10.5-9.3c-0.2-0.6-0.4-1.6-1.8-1.6c-0.8,0-1.5,0.2-1.7,1.5
		c-0.5,2.5-3.9,9.4-10.9,9.4c-6.2,0-8.5-3.2-8.8-10.3c0-0.9-0.8-1-1.3-1.1L0,1L0,1z M2.3,2.4c0.7,0,1.2,0.1,1.2,0.3S2.9,3,2.3,3
		C1.6,3,1.1,2.9,1.1,2.7S1.6,2.4,2.3,2.4z M44.2,2.7c0.7,0,1.2,0.1,1.2,0.3s-0.5,0.3-1.2,0.3C43.6,3.3,43,3.2,43,3
		S43.6,2.7,44.2,2.7z M29.8,2.9c0.8-0.3,2.6-0.4,2.2-0.1c-1.6,1.4-3.7,3.7-2.9,6.9C29.2,10,23.5,5,29.8,2.9z"/>
</g>
</svg>
