<?xml version="1.0" encoding="UTF-8"?>
<svg width="64px" height="64px" viewBox="0 0 64 64" version="1.1" xmlns="http://www.w3.org/2000/svg" xmlns:xlink="http://www.w3.org/1999/xlink">
    <!-- Generator: Sketch 41.2 (35397) - http://www.bohemiancoding.com/sketch -->
    <title>mysensors_number</title>
    <desc>Created with Sketch.</desc>
    <defs></defs>
    <g id="Page-1" stroke="none" stroke-width="1" fill="none" fill-rule="evenodd">
        <g id="mysensors_number" fill="#000000">
            <g id="Group">
                <path d="M28.248,0.41362963 L2.024,0.41362963 C1.392,0.41362963 0.881142857,0.944592593 0.881142857,1.59881481 L0.881142857,28.7928889 C0.881142857,29.4471111 1.392,29.9780741 2.024,29.9780741 L28.2468571,29.9780741 C28.8788571,29.9780741 29.3897143,29.4471111 29.3897143,28.7928889 L29.3897143,1.59881481 C29.3908571,0.943407407 28.88,0.41362963 28.248,0.41362963 Z M24.0902857,16.4598519 C24.0902857,16.786963 23.8342857,17.0524444 23.5188571,17.0524444 L16.9257143,17.0524444 L16.9257143,23.8897778 C16.9257143,24.2168889 16.6697143,24.4823704 16.3542857,24.4823704 L13.9165714,24.4823704 C13.6011429,24.4823704 13.3451429,24.2168889 13.3451429,23.8897778 L13.3451429,17.0524444 L6.752,17.0524444 C6.43657143,17.0524444 6.18057143,16.786963 6.18057143,16.4598519 L6.18057143,13.9318519 C6.18057143,13.6047407 6.43657143,13.3392593 6.752,13.3392593 L13.3451429,13.3392593 L13.3451429,6.50192593 C13.3451429,6.17481481 13.6011429,5.90933333 13.9165714,5.90933333 L16.3542857,5.90933333 C16.6697143,5.90933333 16.9257143,6.17481481 16.9257143,6.50192593 L16.9257143,13.3392593 L23.5188571,13.3392593 C23.8342857,13.3392593 24.0902857,13.6047407 24.0902857,13.9318519 L24.0902857,16.4598519 Z" id="Shape"></path>
                <path d="M61.9371429,34.0219259 L35.7142857,34.0219259 C35.0822857,34.0219259 34.5714286,34.5528889 34.5714286,35.2071111 L34.5714286,62.4023704 C34.5714286,63.0565926 35.0822857,63.5875556 35.7142857,63.5875556 L61.9371429,63.5875556 C62.5691429,63.5875556 63.08,63.0565926 63.08,62.4023704 L63.08,35.2071111 C63.08,34.5517037 62.5691429,34.0219259 61.9371429,34.0219259 Z M56.0194286,53.6379259 C56.2422857,53.869037 56.2422857,54.2447407 56.0194286,54.4758519 L54.296,56.2631111 C54.1885714,56.3745185 54.0434286,56.4361481 53.8914286,56.4361481 C53.7394286,56.4361481 53.5942857,56.3733333 53.4868571,56.2631111 L48.8251429,51.4287407 L44.1634286,56.2631111 C43.9405714,56.4942222 43.5782857,56.4942222 43.3554286,56.2631111 L41.6308571,54.4758519 C41.5234286,54.3644444 41.464,54.2139259 41.464,54.0562963 C41.464,53.8986667 41.5245714,53.7481481 41.6308571,53.6367407 L46.2925714,48.8023704 L41.6331429,43.9703704 C41.4102857,43.7392593 41.4102857,43.3635556 41.6331429,43.1324444 L43.3565714,41.3451852 C43.5714286,41.1223704 43.9508571,41.1223704 44.1645714,41.3451852 L48.8262857,46.1795556 L53.488,41.3451852 C53.5954286,41.2337778 53.7405714,41.1721481 53.8925714,41.1721481 C54.0445714,41.1721481 54.1897143,41.234963 54.2971429,41.3451852 L56.0205714,43.1324444 C56.2434286,43.3635556 56.2434286,43.7392593 56.0205714,43.9703704 L51.3588571,48.8047407 L56.0194286,53.6379259 Z" id="Shape"></path>
                <path d="M61.9371429,0.41362963 L35.7142857,0.41362963 C35.0822857,0.41362963 34.5714286,0.944592593 34.5714286,1.59881481 L34.5714286,28.7928889 C34.5714286,29.4471111 35.0822857,29.9780741 35.7142857,29.9780741 L61.9371429,29.9780741 C62.5691429,29.9780741 63.08,29.4471111 63.08,28.7928889 L63.08,1.59881481 C63.08,0.943407407 62.5691429,0.41362963 61.9371429,0.41362963 Z M57.7805714,16.4598519 C57.7805714,16.786963 57.5245714,17.0524444 57.2091429,17.0524444 L40.4434286,17.0524444 C40.128,17.0524444 39.872,16.786963 39.872,16.4598519 L39.872,13.9318519 C39.872,13.6047407 40.128,13.3392593 40.4434286,13.3392593 L57.2091429,13.3392593 C57.5245714,13.3392593 57.7805714,13.6047407 57.7805714,13.9318519 L57.7805714,16.4598519 Z" id="Shape"></path>
                <path d="M28.248,34.0219259 L2.024,34.0219259 C1.392,34.0219259 0.881142857,34.5528889 0.881142857,35.2071111 L0.881142857,62.4023704 C0.881142857,63.0565926 1.392,63.5875556 2.024,63.5875556 L28.2468571,63.5875556 C28.8788571,63.5875556 29.3897143,63.0565926 29.3897143,62.4023704 L29.3897143,35.2071111 C29.3908571,34.5517037 28.88,34.0219259 28.248,34.0219259 Z M15.136,39.7037037 C16.7897143,39.7037037 18.136,41.0998519 18.136,42.8148148 C18.136,44.5297778 16.7897143,45.9259259 15.136,45.9259259 C13.4822857,45.9259259 12.136,44.5297778 12.136,42.8148148 C12.136,41.0998519 13.4822857,39.7037037 15.136,39.7037037 Z M15.136,57.9045926 C13.4822857,57.9045926 12.136,56.5084444 12.136,54.7934815 C12.136,53.0785185 13.4822857,51.6823704 15.136,51.6823704 C16.7897143,51.6823704 18.136,53.0785185 18.136,54.7934815 C18.136,56.5084444 16.7897143,57.9045926 15.136,57.9045926 Z M24.0902857,50.0681481 C24.0902857,50.3952593 23.8342857,50.6607407 23.5188571,50.6607407 L6.75314286,50.6607407 C6.43771429,50.6607407 6.18171429,50.3952593 6.18171429,50.0681481 L6.18171429,47.5401481 C6.18171429,47.213037 6.43771429,46.9475556 6.75314286,46.9475556 L23.5188571,46.9475556 C23.8342857,46.9475556 24.0902857,47.213037 24.0902857,47.5401481 L24.0902857,50.0681481 Z" id="Shape"></path>
            </g>
        </g>
    </g>
</svg>