<?xml version="1.0" encoding="UTF-8"?>
<svg width="64px" height="64px" viewBox="0 0 64 64" version="1.1" xmlns="http://www.w3.org/2000/svg" xmlns:xlink="http://www.w3.org/1999/xlink">
    <!-- Generator: Sketch 41.2 (35397) - http://www.bohemiancoding.com/sketch -->
    <title>mysensors_boolean_set</title>
    <desc>Created with Sketch.</desc>
    <defs></defs>
    <g id="Page-1" stroke="none" stroke-width="1" fill="none" fill-rule="evenodd">
        <g id="mysensors_boolean_set" fill="#000000">
            <g id="Group">
                <path d="M46,36 C36.074,36 28,27.924 28,18 C28,8.076 36.074,0 46,0 C55.926,0 64,8.076 64,18 C64,27.924 55.926,36 46,36 Z M46,4 C38.282,4 32,10.28 32,18 C32,25.72 38.282,32 46,32 C53.718,32 60,25.72 60,18 C60,10.28 53.718,4 46,4 Z" id="Shape"></path>
                <path d="M18,64 C8.076,64 0,55.926 0,46 C0,36.074 8.076,28 18,28 C27.924,28 36,36.074 36,46 C36,55.926 27.924,64 18,64 Z M18,32 C10.28,32 4,38.282 4,46 C4,53.718 10.28,60 18,60 C25.72,60 32,53.718 32,46 C32,38.282 25.72,32 18,32 Z" id="Shape"></path>
                <path d="M44,26 C43.458,26 42.938,25.78 42.56,25.388 L38.16,20.828 C37.392,20.034 37.416,18.768 38.21,18 C39.006,17.236 40.27,17.256 41.038,18.05 L43.896,21.012 L50.468,13.192 C51.18,12.348 52.44,12.236 53.286,12.948 C54.132,13.658 54.242,14.92 53.53,15.766 L45.53,25.286 C45.166,25.72 44.634,25.98 44.068,26 L44,26 Z" id="Shape"></path>
                <path d="M12,54 C11.488,54 10.976,53.804 10.586,53.414 C9.804,52.632 9.804,51.368 10.586,50.586 L22.586,38.586 C23.368,37.804 24.632,37.804 25.414,38.586 C26.196,39.368 26.196,40.632 25.414,41.414 L13.414,53.414 C13.024,53.804 12.512,54 12,54 Z" id="Shape"></path>
                <path d="M24,54 C23.488,54 22.976,53.804 22.586,53.414 L10.586,41.414 C9.804,40.632 9.804,39.368 10.586,38.586 C11.368,37.804 12.632,37.804 13.414,38.586 L25.414,50.586 C26.196,51.368 26.196,52.632 25.414,53.414 C25.024,53.804 24.512,54 24,54 Z" id="Shape"></path>
            </g>
        </g>
    </g>
</svg>