<?xml version="1.0" encoding="UTF-8"?>
<svg width="64px" height="64px" viewBox="0 0 64 64" version="1.1" xmlns="http://www.w3.org/2000/svg" xmlns:xlink="http://www.w3.org/1999/xlink">
    <!-- Generator: Sketch 41.2 (35397) - http://www.bohemiancoding.com/sketch -->
    <title>mysensors_custom</title>
    <desc>Created with Sketch.</desc>
    <defs></defs>
    <g id="Page-1" stroke="none" stroke-width="1" fill="none" fill-rule="evenodd">
        <g id="mysensors_custom" transform="translate(32.000000, 32.000000) scale(1, -1) translate(-32.000000, -32.000000) " fill="#000000">
            <path d="M37.5825134,63.9736107 C36.9626215,63.8878444 34.9011205,63.1555329 34.1514837,62.7596888 C33.9712826,62.6673252 33.6829608,62.515585 33.5027596,62.4232213 C33.3297665,62.3308577 32.9981965,62.1593253 32.767539,62.0405721 L32.3566804,61.8294552 L32.1043988,62.0009877 C31.974654,62.0933513 31.8016609,62.1725201 31.7295805,62.1725201 C31.4412586,62.1725201 30.8213667,61.6909098 30.4249242,61.1499229 C29.8554886,60.3714295 29.2572209,59.7512738 27.7219072,58.3526247 C25.790151,56.597716 25.8478154,56.6175082 25.631574,57.4025989 C25.4153326,58.1942871 25.2927958,58.8870142 25.2351315,59.6787024 C25.1702591,60.4967802 25.0909706,60.6881048 24.7449844,60.8992216 C24.5647833,61.0047801 24.5431591,61.0047801 24.1827568,60.8200528 C23.2889592,60.3714295 23.2096707,60.1932997 23.2024627,58.6693 C23.2024627,57.4025989 23.1375903,57.0925211 22.8925167,57.0925211 C22.777188,57.0925211 22.6618593,57.2046769 22.4816581,57.4619755 C22.3447053,57.666495 22.0563834,57.9765728 21.8401421,58.1613001 C21.1337536,58.7550662 20.564318,58.9397934 19.4110307,58.9397934 C18.495609,58.9397934 18.027086,58.8276376 17.7892205,58.5571442 C17.5729792,58.3064429 17.6306435,57.7852482 17.9477975,57.2046769 C18.1352067,56.8550146 18.1640389,56.7428588 18.0919584,56.6768848 C17.9766297,56.5713264 16.9026309,56.5845212 16.6071011,56.696677 C16.4917723,56.7362614 16.2466988,56.795638 16.0664977,56.828625 C15.5979747,56.9077938 14.8843782,57.0595341 14.2500702,57.2178717 C13.4571852,57.4157937 13.0895749,57.4025989 12.8949576,57.1782873 C12.794045,57.0529367 12.7580048,56.9473782 12.786837,56.8352224 C12.8300852,56.6702874 13.1472392,56.2150667 13.4499771,55.8851966 C13.5436817,55.7796382 13.6157622,55.6344954 13.6157622,55.5553265 C13.6157622,55.4761577 13.7527151,55.2650409 13.9257081,55.0935085 C14.0987012,54.9153786 14.3077346,54.6053008 14.3870231,54.4007813 C14.5960564,53.8993788 14.8339219,53.2198465 14.9060023,52.9361582 C14.9420426,52.8108076 15.0429552,52.4677427 15.1294517,52.1774571 C15.3889414,51.3593793 15.3889414,51.2142365 15.1510759,50.778808 L14.9492506,50.3961587 L14.9276265,48.1200552 C14.9060023,45.8043674 14.9420426,45.3227571 15.1871161,44.8345494 C15.3096529,44.5838481 15.7277195,44.3595365 16.0737057,44.3595365 C16.3476114,44.3595365 17.6594757,44.9533026 18.8055549,45.5866531 C19.2596618,45.8439518 19.8939698,46.1672244 20.2111238,46.3057699 C20.5282778,46.4443153 21.0688812,46.7214062 21.4076593,46.9127308 C21.7464375,47.1040554 22.0635915,47.2623931 22.1140478,47.2623931 C22.1572961,47.2623931 22.2293765,47.1898216 22.2726248,47.1040554 C22.3374972,46.9787048 22.3230811,46.833562 22.1933363,46.4311205 C21.7464375,44.9533026 21.6887731,44.6300299 21.6887731,43.5612509 C21.6887731,42.6771991 21.6887731,42.6640043 21.4725318,42.3737187 L21.2634984,42.0768356 L21.3283708,40.4604723 C21.3716191,39.3653037 21.4292835,38.7319531 21.508572,38.4878493 C21.5662363,38.2899272 21.6455248,37.7819273 21.6815651,37.3662911 C21.7176053,36.9506548 21.7968938,36.4756419 21.8545582,36.3107068 C21.9122225,36.1457718 21.984303,35.8356939 22.0131352,35.6179797 C22.0780076,35.1165772 22.4816581,33.8102917 22.7267317,33.3418762 C23.1808385,32.4578245 23.7502741,31.7387077 24.8026488,30.7359027 L25.7469027,29.8386561 L25.5883257,29.5351757 C25.5018292,29.3702406 25.3000039,29.0535654 25.1414269,28.8358511 C24.7449844,28.2948642 24.4854948,27.8000591 24.2620453,27.1930982 C24.1611327,26.9160073 24.0241798,26.5993321 23.9665155,26.4871762 C23.9016431,26.3816178 23.8511868,26.1639036 23.8511868,26.0055659 C23.8439787,25.8472283 23.8007304,25.5173582 23.7502741,25.2600596 C23.6277373,24.7058779 23.3898718,23.5909171 23.2457109,22.9509691 C23.1880466,22.7002679 23.1231742,22.3703978 23.094342,22.225255 C23.0510937,21.9613589 23.0294696,21.8821901 22.8132282,21.2026578 C22.5753627,20.4637488 22.3519133,19.7116451 22.301457,19.5005282 C22.2798328,19.381775 22.1861283,19.2564244 22.1068398,19.21684 C22.0131352,19.1706582 20.9607605,19.1574633 18.819971,19.1706582 C15.8430482,19.1970478 15.641223,19.2036452 15.0934115,19.3421906 C14.4807277,19.5005282 13.9112921,19.6786581 13.7959633,19.7512295 C13.7599231,19.7776191 13.6445944,19.8238009 13.5436817,19.8501905 C13.4427691,19.8765801 13.1184071,20.0283203 12.8228772,20.186658 C12.1164887,20.5561124 11.3380198,21.2752292 10.4442222,22.3835926 C10.2351889,22.6474887 9.96849119,22.8718003 9.68737742,23.0301379 C9.44951192,23.162086 8.95936482,23.4655664 8.6061706,23.7030729 C8.24576832,23.9405793 7.81328559,24.2110728 7.63308446,24.296839 C7.45288332,24.3826052 7.17897759,24.5673324 7.02040059,24.7058779 C6.73928682,24.9499817 6.19147537,25.3392284 5.21838923,25.9857737 C4.548041,26.4277996 4.10114218,26.8566307 4.10114218,27.0479554 C4.10114218,27.173306 4.19484677,27.2458774 4.59849732,27.4306046 C5.21118118,27.7142929 5.60762368,28.1167344 5.62203977,28.4532018 C5.65808,29.24489 5.44904668,29.6341367 4.50479273,30.5247859 C4.15880654,30.8546559 3.88490082,31.1647338 3.88490082,31.2373052 C3.88490082,31.5935649 3.25059282,32.1741362 2.67394918,32.3456686 C2.29192277,32.4644219 2.06847336,32.4050452 1.6792389,32.0751752 C1.00889068,31.5143961 0.432247038,30.5379807 0.129509128,29.4560068 C-0.122772463,28.5521629 -0.0146517808,28.0045785 0.525951629,27.4833838 C1.00889068,27.0149683 1.23234008,26.9423969 2.1549699,26.9423969 C3.04876754,26.9423969 2.98389513,26.9687865 3.438002,26.335436 C3.64703532,26.0451503 3.92814909,25.8142413 4.72824214,25.266657 C5.29046968,24.8840077 5.95360986,24.4023974 6.2130995,24.1912806 C6.46538109,23.9801637 6.79695118,23.7492547 6.95552818,23.6766833 C7.10689714,23.6041119 7.62587641,23.294034 8.10160741,22.9839561 C8.57733841,22.6738783 9.10352573,22.3440082 9.26931078,22.2450472 C9.43509582,22.1460862 9.75945787,21.8360083 9.98290728,21.55232 C10.5811751,20.8266059 11.7705026,19.7446321 12.2822738,19.480736 C13.103991,19.0453075 14.5239759,18.543905 15.2375724,18.4317492 C15.5186862,18.3921648 15.8790885,18.3261908 16.0448735,18.2932038 C16.2106586,18.2602168 17.5801872,18.2338272 19.0866687,18.2338272 L21.832934,18.2338272 C21.8978064,17.9765285 21.8833903,17.673048 21.832934,17.3893598 C21.7824777,17.1122689 21.7176053,16.7164249 21.6887731,16.5185028 C21.6094846,16.0236977 21.6094846,8.89850426 21.6887731,8.20577712 C21.8689743,6.6158034 22.0419673,5.6459854 22.3447053,4.45845316 C22.460034,3.99663507 22.618611,3.35668714 22.6978995,3.02681707 C22.7699799,2.7035444 22.9645972,2.00421986 23.1303822,1.47642775 C23.2889592,0.948635647 23.4475362,0.434038342 23.4763684,0.32188252 L23.5340328,0.123960479 L38.1879892,0.104168275 L52.8491537,0.0909734727 L52.7986973,0.631960383 C52.7698652,0.935440844 52.7049928,1.39066154 52.6473284,1.64136279 C52.589664,1.89866144 52.5103755,2.26811592 52.4743353,2.46603796 C52.431087,2.66396 52.3445905,3.04001187 52.2869261,3.29071312 C52.2220537,3.54801178 52.1427652,3.88447924 52.113933,4.04941428 C52.0778928,4.21434931 51.9769802,4.6299856 51.8904836,4.97305047 C51.8039871,5.31611533 51.7102825,5.70536201 51.6742423,5.83071264 C51.5805377,6.21336192 51.4507928,6.70156962 51.3426722,7.05123189 C50.9029814,8.49606278 50.8092768,8.82593285 50.8092768,8.98427048 C50.8092768,9.0832315 50.1605527,10.3829196 50.1605527,10.5478546 C50.1605527,10.6006338 50.0596401,10.8843221 49.9371033,11.1878025 C49.8145665,11.491283 49.6704056,11.8475427 49.6127413,11.9860881 C49.4397482,12.4149192 49.2811712,12.7843737 49.1802585,13.0020879 C49.1225942,13.1142437 49.0793459,13.2263995 49.0793459,13.2461917 C49.0793459,13.265984 48.8486884,13.7212046 48.5675747,14.2555942 C48.2864609,14.7965811 47.9404747,15.4563212 47.7963138,15.7268147 C47.6593609,15.9973081 47.349415,16.5185028 47.1115495,16.8813599 C46.873684,17.244217 46.5349058,17.8379831 46.3619127,18.2008402 C46.1817116,18.5636972 45.9654702,19.0123205 45.8645576,19.2036452 C45.770853,19.3949698 45.6555243,19.612684 45.612276,19.6984503 C45.5762358,19.7842165 45.4609071,19.9821385 45.3672025,20.1404761 C45.2734979,20.2988138 45.2158335,20.4637488 45.2302496,20.5033332 C45.2590818,20.5759046 46.8520598,21.3082162 48.0702195,21.8162161 C48.3297092,21.9217745 48.5891988,22.0339303 48.6468632,22.0603199 C48.7117356,22.0867095 49.1874666,22.2780342 49.7136539,22.4825536 C51.3715043,23.129099 53.0870192,23.9669689 53.9808168,24.5673324 C54.7809098,25.1083194 55.9702374,26.2892542 56.6910419,27.2458774 C56.8568269,27.470189 57.4190545,28.5257733 57.6064637,28.9546043 C58.3488924,30.7095131 59.1706095,32.3456686 59.4445153,32.6359543 C59.5165957,32.7085257 59.6607566,32.7481101 59.8625819,32.7481101 C60.2446083,32.7481101 60.7780037,32.8734607 61.4411439,33.1175646 C62.6160553,33.5529931 63.4017322,34.1137722 63.7909667,34.8064993 C63.992792,35.162759 64,35.228733 64,36.0204212 C64,36.8516937 64,36.8516937 63.7549265,37.2277456 C63.2503633,37.9864468 62.8250886,38.2239532 61.9961634,38.2239532 C61.4988082,38.2239532 61.3618554,38.1975636 61.0086611,38.0260312 C60.7852117,37.9138754 60.3815612,37.7819273 60.1220715,37.7291481 C58.8750797,37.4586547 57.8947855,36.6405769 57.1019005,35.195746 C56.7487063,34.5557981 56.7198741,34.4766293 56.7198741,34.0412008 C56.7270821,33.7839021 56.7631224,33.5068113 56.8135787,33.4342399 C57.0154039,33.1109672 57.664128,32.7481101 58.0533625,32.7481101 C58.1542751,32.7481101 58.2551878,32.7019283 58.2768119,32.6491491 C58.298436,32.5963699 58.1038188,32.1609414 57.8443292,31.6793311 C57.4046384,30.8480585 56.864035,29.6935133 56.864035,29.5615653 C56.864035,29.5285783 56.8207867,29.409825 56.7631224,29.2976692 C56.2153109,28.209098 56.0423178,27.9056175 55.753996,27.503176 C55.2710569,26.8368385 54.0024409,25.6295141 53.3537168,25.2138778 C53.0437709,25.0159557 52.3517985,24.6399039 51.8184032,24.3694104 C50.5137469,23.7228651 50.6290757,23.7756443 49.4037079,23.294034 C47.8395621,22.6804757 47.3854552,22.489151 46.0375507,21.8821901 C45.3744105,21.5787096 44.7473106,21.3346058 44.6391899,21.3346058 C44.4517807,21.3346058 44.2715796,21.4731512 42.8588026,22.7200601 C42.3398234,23.1752808 41.2442005,24.2440598 40.8982143,24.6399039 C40.5017718,25.0951246 39.9251281,25.9593841 39.9251281,26.104527 C39.9251281,26.2298776 39.3196523,27.3184488 38.9952903,27.7868643 C38.793465,28.0639552 38.4258547,28.4861888 38.159157,28.7236953 C37.8996674,28.9612017 37.6906341,29.2053056 37.6906341,29.277877 C37.6906341,29.3504484 37.9284996,29.6341367 38.2168214,29.9046301 C38.5051432,30.181721 38.9015857,30.6171495 39.0962029,30.8678507 C39.2908201,31.1251494 39.579142,31.4814091 39.744927,31.6595389 C40.5017718,32.5040063 41.2946568,33.7377203 41.2946568,34.0807852 C41.2946568,34.159954 41.3379051,34.3446812 41.3955694,34.4964215 C41.4532338,34.6415643 41.5469384,34.997824 41.6118108,35.2881096 C41.6766832,35.5783953 41.7631797,35.934655 41.8136361,36.0797978 C41.9289648,36.4492523 41.9794211,40.9618748 41.8713004,41.5622383 C41.8280521,41.8129396 41.7487636,42.4660823 41.6910993,43.0070692 C41.6262269,43.5546535 41.4964821,44.2935625 41.3883614,44.6564195 C40.8837982,46.4245231 40.9054223,46.3387569 41.0279591,46.4509127 C41.1288717,46.5498737 41.1865361,46.5234841 41.6334349,46.1540296 C41.9001326,45.9363154 42.3686556,45.5272765 42.6641854,45.2501857 C43.3057015,44.6432247 44.3004117,43.9439002 45.3095381,43.3831211 C46.1456714,42.9147056 46.3835369,42.8751212 46.6286104,43.1588094 C46.7799794,43.3237445 46.7871874,43.3831211 46.7439392,43.9702898 C46.7078989,44.4716923 46.6358185,44.794965 46.3691208,45.5206791 C46.0591748,46.3915361 45.9798863,46.7543932 46.0735909,46.8401594 C46.1528794,46.9127308 46.6286104,46.7082114 46.8520598,46.5102893 C46.9745966,46.4047309 47.1403817,46.193614 47.2196702,46.0484712 C47.4359115,45.6592245 47.7818977,45.2040038 47.9548908,45.0720558 C48.1855482,44.893926 50.3191297,44.9005234 51.0183101,45.0786532 C51.9048997,45.3029649 51.9337319,45.3491467 51.8544434,46.3255621 L51.8039871,46.96551 L50.8957733,47.7967826 C49.5622849,49.004107 48.7621919,49.6044705 47.7818977,50.13886 C47.4431196,50.3235873 47.1692138,50.5149119 47.1692138,50.5676911 C47.1692138,50.6336651 47.3061667,50.6732496 47.673777,50.6996392 C50.5137469,50.9305482 52.4382951,51.4187559 52.7338249,51.9729376 C52.8275295,52.1642623 52.8347376,52.2170415 52.748241,52.3819765 C52.5608318,52.7382362 51.2850078,53.2132491 48.3945816,53.9917424 C47.7242333,54.1764697 46.2249599,54.4535605 45.9150139,54.4535605 C45.7059806,54.4535605 45.1005048,54.5327293 44.5599014,54.625093 C44.3148278,54.6646774 44.3580761,54.7768332 44.6680221,54.888989 C45.7780611,55.3112227 47.198046,55.8851966 47.349415,55.9709628 C47.4503276,56.0369368 47.7242333,56.1820797 47.9548908,56.3074303 C48.4954942,56.5911186 49.3676677,57.3432223 49.3676677,57.534547 C49.3676677,57.6071184 49.3027953,57.7456638 49.2162987,57.8446248 C48.9784332,58.1217157 48.7045275,58.0821313 47.3133747,57.5939236 C46.4556173,57.2904431 46.239376,57.2112743 46.0159266,57.1255081 C45.9005978,57.0793263 45.6699404,56.99356 45.5113634,56.9407808 C45.3527864,56.8814042 44.8482232,56.7032744 44.3869083,56.5383393 C43.9255934,56.3734043 43.5291509,56.2348589 43.5003187,56.2348589 C43.3777819,56.2348589 42.2605349,55.6806772 41.8640924,55.4299759 C41.482066,55.1792747 41.4244016,55.1660799 41.330697,55.2518461 C41.2297844,55.3442097 41.2297844,55.3969889 41.3595292,55.7796382 C41.4388177,56.0105472 41.6046027,56.5119497 41.7271395,56.894599 C41.8568843,57.2772483 41.9938372,57.6796898 42.0298774,57.7852482 C42.2028705,58.2734559 42.2965751,58.7418714 42.3037831,59.1575077 C42.3037831,60.1207283 41.9433809,60.3252477 40.1990339,60.3252477 C39.3701086,60.3252477 39.2115316,60.3054555 39.0024983,60.1932997 C38.8727535,60.1207283 38.7502167,60.0151699 38.7285926,59.9623906 C38.6637202,59.8106504 38.4114386,59.83704 38.4114386,59.9953777 C38.4114386,60.1207283 38.793465,61.0905463 39.0169144,61.545767 C39.3124443,62.1329357 39.3701086,62.3044681 39.3989408,62.6739226 C39.4493971,63.1951173 39.3773167,63.6437406 39.2115316,63.8284678 C39.0962029,63.9604159 39.0024983,63.9802081 38.4402708,63.9934029 C38.0870766,64.0000003 37.7050501,63.9934029 37.5825134,63.9736107 Z" id="Shape"></path>
        </g>
    </g>
</svg>